# xmcd CD database file
#
# Track frame offsets:
#	150
#	20282
#	38777
#	57724
#	75267
#	94832
#	115347
#	134347
#	147054
#	163502
#	182232
#	202794
#	223562
#	238757
#
# Disc length: 3417 seconds
#
# Revision: 0
# Processed by: cddbd v1.5.2PL0 Copyright (c) Steve Scherf et al.
# Submitted via: jetAudio 7
#
DISCID=bb0d570e
DTITLE=Elimar Santos - Retratos
DYEAR=1900
DGENRE=Country
TTITLE0=Missão
TTITLE1=É gostoso te amar
TTITLE2=Alguem me disse
TTITLE3=taras e manias
TTITLE4=subindo pelas paredes
TTITLE5=gruda em mim
TTITLE6=escancarado de vez
TTITLE7=tenho ciume de tudo
TTITLE8=quem será
TTITLE9=sonhos
TTITLE10=dona da minha paixão
TTITLE11=mal de amor
TTITLE12=custe o que custar
TTITLE13=dez a dez
EXTD=
EXTT0=
EXTT1=
EXTT2=
EXTT3=
EXTT4=
EXTT5=
EXTT6=
EXTT7=
EXTT8=
EXTT9=
EXTT10=
EXTT11=
EXTT12=
EXTT13=
PLAYORDER=
